<?xml version="1.0" standalone="no"?>
<svg viewBox="0 0 200 200" xmlns="http://www.w3.org/2000/svg">
  <path fill="#BAE6FF" d="M36.3,-56C50.4,-54.7,67.6,-51.8,73.5,-42.2C79.5,-32.6,74.2,-16.3,70.7,-2C67.2,12.3,65.5,24.6,60.3,35.4C55,46.2,46.3,55.6,35.6,60.8C25,65.9,12.5,67,0.5,66.1C-11.5,65.3,-23.1,62.7,-31.2,56C-39.3,49.3,-43.9,38.7,-52.3,28.7C-60.7,18.7,-72.9,9.3,-75.3,-1.4C-77.7,-12.1,-70.2,-24.2,-62.4,-35.2C-54.6,-46.3,-46.4,-56.3,-36,-59.6C-25.5,-63,-12.8,-59.8,-0.8,-58.3C11.1,-56.9,22.2,-57.2,36.3,-56Z" transform="translate(100 100)" />
</svg>
